<svg xmlns="http://www.w3.org/2000/svg" version="1.1" style="display: block;" viewBox="0 0 850 640" preserveAspectRatio="xMidYMid meet">
<defs>
	<linearGradient id="Gradient1" gradientUnits="userSpaceOnUse" x1="413.041" y1="300.261" x2="19.8758" y2="295.693">
		<stop class="stop0" offset="0" stop-opacity="1" stop-color="rgb(52,185,165)"/>
		<stop class="stop1" offset="1" stop-opacity="1" stop-color="rgb(43,145,217)"/>
	</linearGradient>
</defs>
<path transform="translate(0,0)" fill="rgb(45,178,158)" d="M 428.785 28.6412 C 500.875 2.79703 580.266 6.5543 649.593 39.0911 C 718.587 72.5031 771.42 132.035 796.397 204.51 C 820.85 274.58 816.841 356.231 784.477 423.123 C 751.112 493.455 690.865 547.415 617.296 572.859 C 578.066 586.01 536.44 590.444 495.321 585.853 C 491.492 585.436 474.851 582.842 472.235 581.384 C 470.613 579.939 427.582 565.64 420.771 563.044 C 464.693 541.141 484.631 514.595 508.318 474.327 C 509.727 471.932 515.318 476.235 521.107 472.247 C 565.103 471.855 598.148 461.56 633.422 434.066 C 668.068 406.73 690.691 366.963 696.486 323.214 C 702.117 277.619 690.613 230.111 662.129 193.731 C 633.95 157.563 592.617 134 547.139 128.177 C 496.817 122.095 454.907 136.209 415.65 167.02 C 385.953 144.16 361.473 132.597 323.836 127.524 L 323.536 126.138 C 317.61 124.538 310.844 124.937 304.662 125 C 321.528 94.4189 365.886 58.083 397.175 42.3582 C 400.653 40.6106 411.721 33.9051 414.954 33.5591 L 428.785 28.6412 z"/>
<path transform="translate(0,0)" fill="url(#Gradient1)" d="M 414.201 563.174 C 413.125 563.973 412.669 564.192 411.47 564.742 C 346.523 594.548 271.97 594.228 205.503 569.521 C 134.656 542.845 77.1416 489.379 45.374 420.665 C 12.5773 350.408 9.53825 269.885 36.946 197.355 C 63.6257 126.03 117.536 68.2169 186.826 36.6254 C 249.49 8.19054 333.721 2.81717 398.451 27.1919 C 406.702 25.2357 421.512 24.294 428.785 28.6412 L 414.954 33.5591 C 411.721 33.9051 400.653 40.6106 397.175 42.3582 C 365.886 58.083 321.528 94.4189 304.662 125 C 310.844 124.937 317.61 124.538 323.536 126.138 L 323.836 127.524 C 274.322 124.437 231.285 135.183 193.149 168.253 C 157.789 198.917 135.634 241.584 132.667 288.607 C 130.008 334.091 145.327 378.8 175.321 413.097 C 212.705 455.487 266.635 476.606 322.849 471.683 C 340.546 506.747 362.822 533.025 396.776 553.041 C 401.913 556.07 409.571 559.891 414.201 563.174 z"/>
<path transform="translate(0,0)" fill="rgb(234,254,254)" d="M 398.451 27.1919 C 406.702 25.2357 421.512 24.294 428.785 28.6412 L 414.954 33.5591 C 409.852 31.2117 403.78 29.1454 398.451 27.1919 z"/>
<path transform="translate(0,0)" fill="rgb(40,163,173)" d="M 219.669 197.786 C 264.133 196.542 294.69 192.849 329.601 225.932 C 338.497 234.232 346.003 243.907 351.831 254.588 C 361.488 272.104 366.973 291.613 374.158 310.237 C 388.066 346.294 400.546 385.213 415.816 420.611 C 427.195 389.044 438.781 357.552 450.57 326.135 C 468.269 278.973 477.975 231.339 527.019 207.507 C 554.667 194.072 581.114 197.016 611.44 197.373 L 508.181 471.598 L 521.107 472.247 C 515.318 476.235 509.727 471.932 508.318 474.327 C 484.631 514.595 464.693 541.141 420.771 563.044 C 427.582 565.64 470.613 579.939 472.235 581.384 C 452.341 579.973 426.509 564.883 414.201 563.174 C 409.571 559.891 401.913 556.07 396.776 553.041 C 362.822 533.025 340.546 506.747 322.849 471.683 C 291.568 393.399 263.327 313.207 233.241 234.407 C 228.605 222.267 224.483 209.85 219.669 197.786 z"/>
</svg>